<svg width="180" height="180" viewBox="0 0 200 200" fill="none" xmlns="http://www.w3.org/2000/svg">
  <rect width="200" height="200" rx="40" fill="#1a1a1a"/>
  <defs>
    <linearGradient id="appleTouchGradient" x1="0%" y1="0%" x2="100%" y2="100%">
      <stop offset="0%" style="stop-color:#7FFF00;stop-opacity:1" />
      <stop offset="100%" style="stop-color:#5CB800;stop-opacity:1" />
    </linearGradient>
  </defs>
  <path d="M100 45
           C135 45 165 70 165 108
           C165 146 135 171 100 171
           L65 171
           L65 148
           L100 148
           C122 148 140 130 140 108
           C140 86 122 68 100 68
           L65 68
           L65 45
           L100 45 Z"
        fill="url(#appleTouchGradient)"/>
  <circle cx="118" cy="78" r="5" fill="#1a1a1a" />
  <circle cx="130" cy="90" r="4" fill="#1a1a1a" />
  <circle cx="135" cy="108" r="6" fill="#1a1a1a" />
  <rect x="82" y="152" width="26" height="5" rx="2.5" fill="url(#appleTouchGradient)" opacity="0.8"/>
</svg>